<?xml version="1.0" encoding="utf-8"?>
<!-- Generator: Adobe Illustrator 23.0.1, SVG Export Plug-In . SVG Version: 6.00 Build 0)  -->
<svg version="1.1" id="레이어_1" xmlns="http://www.w3.org/2000/svg" xmlns:xlink="http://www.w3.org/1999/xlink" x="0px"
	 y="0px" viewBox="0 0 38 24" style="enable-background:new 0 0 38 24;" xml:space="preserve">
<style type="text/css">
	.st0{fill-rule:evenodd;clip-rule:evenodd;fill:#FFFFFF;fill-opacity:1.000000e-02;}
	.st1{fill:#6B40DD;}
</style>
<g>
	<path class="st0" d="M0,0h24v24H0V0z"/>
	<path class="st1" d="M19,4.8h-1V3.9C18,3.4,17.5,3,17,3s-1,0.4-1,0.9v0.9H8V3.9C8,3.4,7.6,3,7,3S6,3.4,6,3.9v0.9H5
		c-1.1,0-2,0.8-2,1.8l0,12.6c0,1,0.9,1.8,2,1.8h14c1.1,0,2-0.8,2-1.8V6.6C21,5.6,20.1,4.8,19,4.8z M19,18.1c0,0.5-0.5,0.9-1,0.9H6
		c-0.6,0-1-0.4-1-0.9V9h14V18.1z M7,11h2v2H7V11z M11,11h2v2h-2V11z M15,11h2v2h-2V11z M7,15h2v2H7V15z M11,15h2v2h-2V15z M15,15h2
		v2h-2V15z"/>
</g>
</svg>
