<svg xmlns="http://www.w3.org/2000/svg" width="48" height="48" viewBox="0 0 48 48">
    <g fill="none" fill-rule="evenodd">
        <path fill="#FFF" fill-opacity=".01" d="M0 0h48v48H0z"/>
        <path fill="#6B40DD" fill-rule="nonzero" d="M31 26.484h-.555v-1.115c0-.7-.468-1.257-1.129-1.36-.657-.09-1.285.371-1.445.991H28v4a1 1 0 0 1-2 0v-3.692h-.168v-1.115c0-.7-.468-1.257-1.13-1.36-.756-.103-1.484.527-1.484 1.237H23V30a1 1 0 0 1-2 0V15.29c0-.684-.304-1.29-1-1.29s-1 .606-1 1.29v16.578c0 1.28-2.178 1.785-2.764.619-.15-.263-.313-.556-.489-.876l-.11-.2a137.266 137.266 0 0 1-1.296-2.435c-.306-.608-1.063-.855-1.655-.544-.612.304-.858 1.045-.549 1.625a70.438 70.438 0 0 0 2.481 4.494c.361.598.71 1.151 1.044 1.648.111.167.221.327.326.476 1.89 2.666 3.684 4.388 5.211 5.37.958.614 1.781.955 2.203.955h5.799c.672 0 1.307-.338 1.731-.927l1.063-1.551c1.949-2.815 3.002-6.208 3.002-9.706l.001-4.326c.034-.592-.457-1.176-1.044-1.24l-.024-.004c-.577-.078-1.137.27-1.37.754H33v4a1 1 0 0 1-2 0v-3.516zm5.997.061v4.271c0 3.903-1.177 7.695-3.355 10.84l-1.073 1.566C31.762 44.344 30.528 45 29.2 45h-5.799c-.9 0-2.03-.468-3.284-1.273-1.744-1.12-3.724-3.021-5.764-5.899a28.66 28.66 0 0 1-.353-.515 42.55 42.55 0 0 1-1.096-1.73c-.6-.996-1.199-2.06-1.77-3.127-.35-.653-.61-1.155-.773-1.479-.833-1.561-.18-3.535 1.415-4.326 1.565-.823 3.543-.178 4.345 1.415l.391.745c.03.057.457.115.487.172V15.29c0-1.792 1.202-3.29 3-3.29s3 1.498 3 3.29v5.814c.54-.236 1.365-.335 1.991-.25a3.329 3.329 0 0 1 2.406 1.658 3.297 3.297 0 0 1 2.208-.483 3.328 3.328 0 0 1 2.428 1.7 3.29 3.29 0 0 1 2.153-.466c1.64.188 2.901 1.694 2.81 3.282zM20 3a1 1 0 0 1 1 1v5a1 1 0 0 1-2 0V4a1 1 0 0 1 1-1zm-8.475 3.025a1 1 0 0 1 1.414 0l2.829 2.829a1 1 0 0 1-1.414 1.414l-2.829-2.829a1 1 0 0 1 0-1.414zM28.95 6a1 1 0 0 1 0 1.414l-2.829 2.829a1 1 0 1 1-1.414-1.415L27.536 6a1 1 0 0 1 1.414 0z"/>
    </g>
</svg>
