<svg xmlns="http://www.w3.org/2000/svg" width="48" height="48" viewBox="0 0 48 48">
    <g fill="none" fill-rule="evenodd">
        <path fill="#FFF" fill-opacity=".01" d="M0 0h48v48H0z"/>
        <path fill="#6B40DD" fill-rule="nonzero" d="M19.854 14c.925-.122 1.93-.31 3.008-.56-.434-2.272-2.67-5.751-4.666-6.903a4 4 0 1 0-4 6.928c.419.242.919.42 1.496.535h4.162zm-8.133 0a6 6 0 0 1 7.475-9.195c1.704.983 3.603 3.3 4.732 5.67 1.13-2.37 3.029-4.687 4.732-5.67A6 6 0 0 1 36.135 14H41a3 3 0 0 1 3 3v5a3 3 0 0 1-3 3h-.17c.11.313.17.65.17 1v15a3 3 0 0 1-3 3H10a3 3 0 0 1-3-3V26c0-.35.06-.687.17-1H7a3 3 0 0 1-3-3v-5a3 3 0 0 1 3-3h4.72zm8.265 2c-1.575.197-3.102.233-4.453 0H7a1 1 0 0 0-1 1v5a1 1 0 0 0 1 1h16v-7h-3.014zm12.338 0c-1.352.233-2.879.197-4.454 0H25v7h16a1 1 0 0 0 1-1v-5a1 1 0 0 0-1-1h-8.676zm-4.321-2h4.161c.578-.116 1.078-.293 1.496-.535a4 4 0 1 0-4-6.928c-1.995 1.152-4.231 4.63-4.666 6.903 1.079.25 2.084.438 3.009.56zM23 25H10a1 1 0 0 0-1 1v15a1 1 0 0 0 1 1h28a1 1 0 0 0 1-1V26a1 1 0 0 0-1-1H25v16.805h-2V25z"/>
    </g>
</svg>
