<svg xmlns="http://www.w3.org/2000/svg" width="48" height="48" viewBox="0 0 48 48">
    <g fill="none" fill-rule="evenodd">
        <path fill="#FFF" fill-opacity=".01" d="M0 0h48v48H0z"/>
        <path fill="#6B40DD" fill-rule="nonzero" d="M34.933 34.52l8.142 8.14c.321.322.265.9-.125 1.29s-.968.446-1.29.125l-8.196-8.197A17.926 17.926 0 0 1 22 40c-9.941 0-18-8.059-18-18S12.059 4 22 4s18 8.059 18 18c0 4.865-1.93 9.28-5.067 12.52zm-.458.455l8.268 8.268-8.268-8.268zM22 37.882c8.772 0 15.882-7.11 15.882-15.882 0-8.772-7.11-15.882-15.882-15.882-8.772 0-15.882 7.11-15.882 15.882 0 8.772 7.11 15.882 15.882 15.882zM12.75 29.5h18.5a.75.75 0 1 1 0 1.5h-18.5a.75.75 0 1 1 0-1.5zm1.25-13a.5.5 0 0 0-.5.5v9a.5.5 0 0 0 .5.5h2a.5.5 0 0 0 .5-.5v-9a.5.5 0 0 0-.5-.5h-2zm0-1.5h2a2 2 0 0 1 2 2v9a2 2 0 0 1-2 2h-2a2 2 0 0 1-2-2v-9a2 2 0 0 1 2-2zm14 6.5a.5.5 0 0 0-.5.5v4a.5.5 0 0 0 .5.5h2a.5.5 0 0 0 .5-.5v-4a.5.5 0 0 0-.5-.5h-2zm0-1.5h2a2 2 0 0 1 2 2v4a2 2 0 0 1-2 2h-2a2 2 0 0 1-2-2v-4a2 2 0 0 1 2-2zm-7-9.5a.5.5 0 0 0-.5.5v15a.5.5 0 0 0 .5.5h2a.5.5 0 0 0 .5-.5V11a.5.5 0 0 0-.5-.5h-2zM21 9h2a2 2 0 0 1 2 2v15a2 2 0 0 1-2 2h-2a2 2 0 0 1-2-2V11a2 2 0 0 1 2-2z"/>
    </g>
</svg>
