<svg xmlns="http://www.w3.org/2000/svg" width="48" height="48" viewBox="0 0 48 48">
    <g fill="none" fill-rule="evenodd">
        <path fill="#FFF" fill-opacity=".01" d="M0 0h48v48H0z"/>
        <path fill="#6B40DD" fill-rule="nonzero" d="M7 12a1 1 0 0 0-1 1v22a1 1 0 0 0 1 1h34a1 1 0 0 0 1-1V13a1 1 0 0 0-1-1H7zm0-2h34a3 3 0 0 1 3 3v22a3 3 0 0 1-3 3H7a3 3 0 0 1-3-3V13a3 3 0 0 1 3-3zm9 14c-1.93 0-3.5-1.57-3.5-3.5S14.07 17 16 17s3.5 1.57 3.5 3.5S17.93 24 16 24zm0-5c-.83 0-1.5.67-1.5 1.5S15.17 22 16 22s1.5-.67 1.5-1.5S16.83 19 16 19zm0 6.75c2.34 0 7 1.17 7 3.5V30c0 .55-.45 1-1 1H10c-.55 0-1-.45-1-1v-.75c0-2.33 4.66-3.5 7-3.5zM11.34 29h9.32c-.84-.58-2.87-1.25-4.66-1.25s-3.82.67-4.66 1.25zM38 23c.55 0 1 .45 1 1s-.45 1-1 1H27c-.55 0-1-.45-1-1s.45-1 1-1h11zm0-4c.55 0 1 .45 1 1s-.45 1-1 1H27c-.55 0-1-.45-1-1s.45-1 1-1h11zM27 29c-.55 0-1-.45-1-1s.45-1 1-1h7c.55 0 1 .45 1 1s-.45 1-1 1h-7z"/>
    </g>
</svg>
