<?xml version="1.0" encoding="UTF-8"?>
<svg width="32px" height="32px" viewBox="0 0 32 32" version="1.1" xmlns="http://www.w3.org/2000/svg" xmlns:xlink="http://www.w3.org/1999/xlink">
    <!-- Generator: sketchtool 52.6 (67491) - http://www.bohemiancoding.com/sketch -->
    <title>108E8D38-1303-4397-B984-99EE4ABCB040</title>
    <desc>Created with sketchtool.</desc>
    <g id="Mobile-Page" stroke="none" stroke-width="1" fill="none" fill-rule="evenodd">
        <g id="M_ANA_Home01" transform="translate(-92.000000, -827.000000)">
            <g id="bottom" transform="translate(0.000000, 822.000000)">
                <g id="btn_analysis_on" transform="translate(72.000000, 1.000000)">
                    <g id="nav-bar/ic_analysis_on_32px" transform="translate(20.000000, 4.000000)">
                        <g>
                            <rect id="path" fill-opacity="0.01" fill="#FFFFFF" opacity="0.5" x="0" y="0" width="32" height="32"></rect>
                            <path d="M19.25,20.5 C18.6977153,20.5 18.25,20.9477153 18.25,21.5 L18.25,26.5 C18.25,27.0522847 18.6977153,27.5 19.25,27.5 C19.8022847,27.5 20.25,27.0522847 20.25,26.5 L20.25,21.5 C20.25,20.9477153 19.8022847,20.5 19.25,20.5 Z M19.25,19 C20.6307119,19 21.75,20.1192881 21.75,21.5 L21.75,26.5 C21.75,27.8807119 20.6307119,29 19.25,29 C17.8692881,29 16.75,27.8807119 16.75,26.5 L16.75,21.5 C16.75,20.1192881 17.8692881,19 19.25,19 Z M25.75,14.5 C25.1977153,14.5 24.75,14.9477153 24.75,15.5 L24.75,26.5 C24.75,27.0522847 25.1977153,27.5 25.75,27.5 C26.3022847,27.5 26.75,27.0522847 26.75,26.5 L26.75,15.5 C26.75,14.9477153 26.3022847,14.5 25.75,14.5 Z M25.75,13 C27.1307119,13 28.25,14.1192881 28.25,15.5 L28.25,26.5 C28.25,27.8807119 27.1307119,29 25.75,29 C24.3692881,29 23.25,27.8807119 23.25,26.5 L23.25,15.5 C23.25,14.1192881 24.3692881,13 25.75,13 Z M12.75,17.5 C12.1977153,17.5 11.75,17.9477153 11.75,18.5 L11.75,26.5 C11.75,27.0522847 12.1977153,27.5 12.75,27.5 C13.3022847,27.5 13.75,27.0522847 13.75,26.5 L13.75,18.5 C13.75,17.9477153 13.3022847,17.5 12.75,17.5 Z M12.75,16 C14.1307119,16 15.25,17.1192881 15.25,18.5 L15.25,26.5 C15.25,27.8807119 14.1307119,29 12.75,29 C11.3692881,29 10.25,27.8807119 10.25,26.5 L10.25,18.5 C10.25,17.1192881 11.3692881,16 12.75,16 Z M6.25,23.5 C5.69771525,23.5 5.25,23.9477153 5.25,24.5 L5.25,26.5 C5.25,27.0522847 5.69771525,27.5 6.25,27.5 C6.80228475,27.5 7.25,27.0522847 7.25,26.5 L7.25,24.5 C7.25,23.9477153 6.80228475,23.5 6.25,23.5 Z M6.25,22 C7.63071187,22 8.75,23.1192881 8.75,24.5 L8.75,26.5 C8.75,27.8807119 7.63071187,29 6.25,29 C4.86928813,29 3.75,27.8807119 3.75,26.5 L3.75,24.5 C3.75,23.1192881 4.86928813,22 6.25,22 Z M25.1727313,7.418259 L19.7954951,12.7954951 C19.3561553,13.234835 18.6438447,13.234835 18.2045049,12.7954951 L13,7.59099026 L5.79549513,14.7954951 C5.3561553,15.234835 4.6438447,15.234835 4.20450487,14.7954951 C3.76516504,14.3561553 3.76516504,13.6438447 4.20450487,13.2045049 L12.2045049,5.20450487 C12.6438447,4.76516504 13.3561553,4.76516504 13.7954951,5.20450487 L19,10.4090097 L23.585858,5.82315171 L23.5739355,5.81116735 L21.8028674,4.0434464 C21.4215958,3.66289536 21.6921756,3 22.2456344,3 L27.5219416,3 C27.866316,3 28.1368959,3.27006848 28.1245968,3.613792 L28.1245968,8.89240318 C28.1245968,9.43254014 27.4604462,9.70260862 27.0791746,9.32205758 L25.3081064,7.55433663 L25.1727313,7.418259 Z" id="Combined-Shape" fill="#6B40DD" fill-rule="nonzero"></path>
                        </g>
                    </g>
                </g>
            </g>
        </g>
    </g>
</svg>