<?xml version="1.0" encoding="UTF-8"?>
<svg width="20px" height="20px" viewBox="0 0 20 20" version="1.1" xmlns="http://www.w3.org/2000/svg" xmlns:xlink="http://www.w3.org/1999/xlink">
    <!-- Generator: sketchtool 52.6 (67491) - http://www.bohemiancoding.com/sketch -->
    <title>8247C1C0-18D1-4893-AA3D-4964B892DCDA</title>
    <desc>Created with sketchtool.</desc>
    <g id="Mobile-Page" stroke="none" stroke-width="1" fill="none" fill-rule="evenodd">
        <g id="M_PP_Item01" transform="translate(-327.000000, -100.000000)">
            <g id="body" transform="translate(0.000000, 80.000000)">
                <g id="section">
                    <g id="top" transform="translate(0.000000, 10.000000)">
                        <g id="contents/ic_arrow_down_20px" transform="translate(327.000000, 10.000000)">
                            <g>
                                <polygon id="Path" fill-opacity="0.01" fill="#FFFFFF" opacity="0.5" transform="translate(10.000000, 10.000000) rotate(-90.000000) translate(-10.000000, -10.000000) " points="0 0 20 0 20 20 0 20"></polygon>
                                <path d="M15.5580583,6.55805826 C15.8021359,6.31398058 16.1978641,6.31398058 16.4419417,6.55805826 C16.6860194,6.80213594 16.6860194,7.19786406 16.4419417,7.44194174 L10.4419417,13.4419417 C10.1978641,13.6860194 9.80213594,13.6860194 9.55805826,13.4419417 L3.55805826,7.44194174 C3.31398058,7.19786406 3.31398058,6.80213594 3.55805826,6.55805826 C3.80213594,6.31398058 4.19786406,6.31398058 4.44194174,6.55805826 L10,12.1161165 L15.5580583,6.55805826 Z" id="Path-7" fill="#ADADAD" fill-rule="nonzero"></path>
                            </g>
                        </g>
                    </g>
                </g>
            </g>
        </g>
    </g>
</svg>