<?xml version="1.0" encoding="UTF-8"?>
<svg width="12px" height="12px" viewBox="0 0 12 12" version="1.1" xmlns="http://www.w3.org/2000/svg" xmlns:xlink="http://www.w3.org/1999/xlink">
    <!-- Generator: sketchtool 52.6 (67491) - http://www.bohemiancoding.com/sketch -->
    <title>251A8EAB-4D26-4C49-A7A9-FE38DB038EDD</title>
    <desc>Created with sketchtool.</desc>
    <g id="Mobile-Page" stroke="none" stroke-width="1" fill="none" fill-rule="evenodd">
        <g id="M_INF_Index01" transform="translate(-42.000000, -627.000000)">
            <g id="body" transform="translate(0.000000, 200.000000)">
                <g id="section" transform="translate(0.000000, 367.000000)">
                    <g id="cell" transform="translate(0.000000, 39.000000)">
                        <g id="rank" transform="translate(16.000000, 13.000000)">
                            <g id="contents/ic_arrow_up_12px" transform="translate(26.000000, 8.000000)">
                                <g>
                                    <rect id="path" fill-opacity="0.01" fill="#FFFFFF" opacity="0.5" x="0" y="0" width="12" height="12"></rect>
                                    <path d="M6.5,4.67666667 L6.5,9.34333333 C6.5,9.61947571 6.27614237,9.84333333 6,9.84333333 C5.72385763,9.84333333 5.5,9.61947571 5.5,9.34333333 L5.5,4.67666667 L5.33333333,4.67666667 L4.14,4.67666667 C3.84,4.67666667 3.69333333,4.31666667 3.9,4.11 L5.76,2.25 C5.89333333,2.11666667 6.1,2.11666667 6.23333333,2.25 L8.09333333,4.11 C8.30666667,4.31666667 8.16,4.67666667 7.86,4.67666667 L6.66666667,4.67666667 L6.5,4.67666667 Z" id="Combined-Shape" fill="#E12301" fill-rule="nonzero"></path>
                                </g>
                            </g>
                        </g>
                    </g>
                </g>
            </g>
        </g>
    </g>
</svg>