<?xml version="1.0" encoding="UTF-8"?>
<svg width="24px" height="24px" viewBox="0 0 24 24" version="1.1" xmlns="http://www.w3.org/2000/svg" xmlns:xlink="http://www.w3.org/1999/xlink">
    <!-- Generator: sketchtool 52.6 (67491) - http://www.bohemiancoding.com/sketch -->
    <title>01055A9A-6745-4183-93F1-66B3E274323B</title>
    <desc>Created with sketchtool.</desc>
    <g id="Mobile-Page" stroke="none" stroke-width="1" fill="none" fill-rule="evenodd">
        <g id="M_SUB_Customer_Pause" transform="translate(-308.000000, -551.000000)">
            <g id="body" transform="translate(0.000000, 80.000000)">
                <g id="section" transform="translate(0.000000, 400.000000)">
                    <g id="row" transform="translate(0.000000, 63.000000)">
                        <g id="input" transform="translate(16.000000, 0.000000)">
                            <g id="contents/ic_calendar_24px" transform="translate(292.000000, 8.000000)">
                                <g>
                                    <polygon id="Path" fill-opacity="0.01" fill="#FFFFFF" opacity="0.5" points="0 0 24 0 24 24 0 24"></polygon>
                                    <path d="M4.75,8.75 L4.75,19 C4.75,19.1380712 4.86192881,19.25 5,19.25 L19,19.25 C19.1380712,19.25 19.25,19.1380712 19.25,19 L19.25,8.75 L4.75,8.75 Z M18,5 L19,5 C20.1045695,5 21,5.8954305 21,7 L21,19 C21,20.1045695 20.1045695,21 19,21 L5,21 C3.8954305,21 3,20.1045695 3,19 L3,7 C3,5.8954305 3.8954305,5 5,5 L6,5 L6,3.875 C6,3.39175084 6.39175084,3 6.875,3 C7.35824916,3 7.75,3.39175084 7.75,3.875 L7.75,5 L16.25,5 L16.25,3.875 C16.25,3.39175084 16.6417508,3 17.125,3 C17.6082492,3 18,3.39175084 18,3.875 L18,5 Z M7,11 L9,11 L9,13 L7,13 L7,11 Z M11,11 L13,11 L13,13 L11,13 L11,11 Z M15,11 L17,11 L17,13 L15,13 L15,11 Z M7,15 L9,15 L9,17 L7,17 L7,15 Z M11,15 L13,15 L13,17 L11,17 L11,15 Z M15,15 L17,15 L17,17 L15,17 L15,15 Z" id="Combined-Shape" fill="#777777" fill-rule="nonzero"></path>
                                </g>
                            </g>
                        </g>
                    </g>
                </g>
            </g>
        </g>
    </g>
</svg>