<?xml version="1.0" encoding="UTF-8"?>
<svg width="40px" height="40px" viewBox="0 0 40 40" version="1.1" xmlns="http://www.w3.org/2000/svg" xmlns:xlink="http://www.w3.org/1999/xlink">
    <!-- Generator: sketchtool 52.6 (67491) - http://www.bohemiancoding.com/sketch -->
    <title>EC80F36D-019E-46D6-83E7-9FEAB8C852D8</title>
    <desc>Created with sketchtool.</desc>
    <g id="Mobile-Page" stroke="none" stroke-width="1" fill="none" fill-rule="evenodd">
        <g id="M_SUB_Index" transform="translate(-25.000000, -221.000000)">
            <g id="body" transform="translate(0.000000, 201.000000)">
                <g id="cell">
                    <g id="btn_cs">
                        <g id="contents/ic_cs_40px" transform="translate(25.000000, 20.000000)">
                            <g>
                                <rect id="path" fill-opacity="0.01" fill="#FFFFFF" opacity="0.5" x="0" y="0" width="40" height="40"></rect>
                                <path d="M33,30 L33,32 L33,34.5 C33,35.8807119 31.8807119,37 30.5,37 L22,37 C21.4477153,37 21,36.5522847 21,36 C21,35.4477153 21.4477153,35 22,35 L22,32 L25.3541756,32 C24.5237549,31.2670555 24,30.1946925 24,29 L24,24 C24,22.3431458 25.3431458,21 27,21 L13,21 C14.6568542,21 16,22.3431458 16,24 L16,30 C16,31.6568542 14.6568542,33 13,33 L11,33 C8.790861,33 7,31.209139 7,29 L7,21 L7,17 C7,9.82029825 12.8202983,4 20,4 C27.1797017,4 33,9.82029825 33,17 L33,21 L33,30 Z M31,32.8292943 C30.6872211,32.9398458 30.3506354,33 30,33 L28,33 C26.9855535,33 26.0593088,32.6223634 25.3541756,32 L22,32 L22,35 L30,35 C30.5522847,35 31,34.5522847 31,34 L31,32.8292943 Z M31,21 L31,17 C31,10.9248678 26.0751322,6 20,6 C13.9248678,6 9,10.9248678 9,17 L9,21 L13,21 L27,21 L31,21 Z M9,23 L9,29 C9,30.1045695 9.8954305,31 11,31 L13,31 C13.5522847,31 14,30.5522847 14,30 L14,24 C14,23.4477153 13.5522847,23 13,23 L9,23 Z M31,23 L27,23 C26.4477153,23 26,23.4477153 26,24 L26,29 C26,30.1045695 26.8954305,31 28,31 L30,31 C30.5522847,31 31,30.5522847 31,30 L31,23 Z" id="Combined-Shape" fill="#484848" fill-rule="nonzero"></path>
                            </g>
                        </g>
                    </g>
                </g>
            </g>
        </g>
    </g>
</svg>