<?xml version="1.0" encoding="UTF-8"?>
<svg width="40px" height="40px" viewBox="0 0 40 40" version="1.1" xmlns="http://www.w3.org/2000/svg" xmlns:xlink="http://www.w3.org/1999/xlink">
    <!-- Generator: sketchtool 52.6 (67491) - http://www.bohemiancoding.com/sketch -->
    <title>E92C0106-913C-463C-B405-01E5284DA936</title>
    <desc>Created with sketchtool.</desc>
    <defs>
        <rect id="path-1" x="0" y="0" width="40" height="40"></rect>
    </defs>
    <g id="Mobile-Page" stroke="none" stroke-width="1" fill="none" fill-rule="evenodd">
        <g id="M_INF_Index01" transform="translate(-1.000000, -301.000000)">
            <g id="body" transform="translate(0.000000, 200.000000)">
                <g id="section">
                    <g id="rank" transform="translate(0.000000, 56.000000)">
                        <g id="cell" transform="translate(0.000000, 39.000000)">
                            <g id="rank" transform="translate(1.000000, 6.000000)">
                                <g id="contents/ic_first_40px">
                                    <g>
                                        <mask id="mask-2" fill="white">
                                            <use xlink:href="#path-1"></use>
                                        </mask>
                                        <use id="Mask" fill-opacity="0.01" fill="#FFFFFF" opacity="0.5" xlink:href="#path-1"></use>
                                        <g id="shape" mask="url(#mask-2)">
                                            <g transform="translate(7.000000, -11.000000)">
                                                <path d="M9.12675,18.231478 L15.16175,18.231478 L24.5055,2.31408794 C22.9755,1.48276879 21.34675,0.812470922 19.64675,0.311931915 L9.12675,18.231478 Z" id="Fill-1" fill="#3C69BE"></path>
                                                <path d="M4.774875,0.538609929 C3.097375,1.08782979 1.499875,1.81055319 -0.000125,2.68431206 L9.126125,18.2309787 L15.162375,18.2309787 L4.774875,0.538609929 Z" id="Fill-3" fill="#6496E1"></path>
                                                <path d="M16.8855,22.5356142 C16.40925,22.5356142 16.02425,22.1499121 16.02425,21.6743376 L16.02425,18.2317277 C16.02425,17.7561532 15.63675,17.3704511 15.16175,17.3704511 L9.98925,17.3704511 C9.51425,17.3704511 9.12675,17.7561532 9.12675,18.2317277 L9.12675,21.6743376 C9.12675,22.1499121 8.7405,22.5356142 8.2655,22.5356142 C7.78925,22.5356142 7.403,22.1499121 7.403,21.6743376 L7.403,18.2317277 C7.403,16.8075007 8.563,15.6491461 9.988,15.6491461 L15.1605,15.6491461 C16.588,15.6491461 17.74675,16.8075007 17.74675,18.2317277 L17.74675,21.6743376 C17.74675,22.1499121 17.36175,22.5356142 16.8855,22.5356142" id="Fill-6" fill="#9B9BA0"></path>
                                                <path d="M3.296,8.29858723 L9.12725,18.2319773 L15.16225,18.2319773 L5.03725,0.985225532 C4.31475,2.44440284 3.626,4.73240284 3.296,8.29858723" id="Fill-8" fill="#4678D2"></path>
                                                <path d="M19.64675,0.311931915 L18.4155,2.41020142 C18.77675,4.58835745 19.363,6.97371915 20.28425,9.5051234 L24.50675,2.31408794 C22.9755,1.48276879 21.348,0.812470922 19.64675,0.311931915" id="Fill-10" fill="#6496E1"></path>
                                                <path d="M12.57525,19.0920057 C19.24025,19.0920057 24.644,24.4880908 24.644,31.1436369 C24.644,37.799183 19.24025,43.1965163 12.57525,43.1965163 C5.909,43.1965163 0.5065,37.799183 0.5065,31.1436369 C0.5065,24.4880908 5.909,19.0920057 12.57525,19.0920057" id="Fill-12" fill="#FED85F"></path>
                                                <path d="M12.57525,39.7524085 C9.759,39.7524085 7.25275,38.3955858 5.679,36.3023092 C5.6815,34.1553589 7.20775,33.375217 9.53525,32.4303092 C10.61525,31.9934298 11.634,31.5790184 12.32275,30.8912454 C13.29025,29.926366 13.81525,29.1025362 14.27775,28.3748199 C15.12525,27.0442099 15.6915,26.159217 18.73025,25.1256851 C20.254,26.6784794 21.19525,28.8042099 21.19525,31.1446355 C21.19525,35.8903943 17.329,39.7524085 12.57525,39.7524085 M16.1715,24.3130894 C14.2015,25.2916993 13.55025,26.3115007 12.824,27.4511319 C12.38775,28.1339121 11.9365,28.842905 11.104,29.6742241 C10.6615,30.1148482 9.799,30.4656 8.8865,30.8350752 C8.0715,31.1658553 7.139,31.5453163 6.3065,32.0907915 C7.7615,27.8343376 11.589,24.7562099 16.1715,24.3130894 M12.57525,22.5356142 C13.299,22.5356142 14.00275,22.6267348 14.67525,22.7952454 C9.43275,23.8362667 5.27275,27.9229617 4.21525,33.2416567 C4.04525,32.5701106 3.95525,31.8673589 3.95525,31.1446355 C3.95525,26.3976284 7.8215,22.5356142 12.57525,22.5356142 M12.57525,20.8143092 C6.8715,20.8143092 2.23025,25.4477277 2.23025,31.1446355 C2.23025,36.840295 6.8715,41.4749617 12.57525,41.4749617 C18.279,41.4749617 22.919,36.840295 22.919,31.1446355 C22.919,25.4477277 18.279,20.8143092 12.57525,20.8143092" id="Fill-15" fill="#DBB464"></path>
                                            </g>
                                        </g>
                                        <text id="1" mask="url(#mask-2)" font-family="NotoSansCJKkr-Bold, Noto Sans CJK KR" font-size="16" font-weight="bold" fill="#1B1B1B">
                                            <tspan x="15" y="26">1</tspan>
                                        </text>
                                    </g>
                                </g>
                            </g>
                        </g>
                    </g>
                </g>
            </g>
        </g>
    </g>
</svg>