<?xml version="1.0" encoding="UTF-8"?>
<svg width="24px" height="24px" viewBox="0 0 24 24" version="1.1" xmlns="http://www.w3.org/2000/svg" xmlns:xlink="http://www.w3.org/1999/xlink">
    <!-- Generator: sketchtool 52.6 (67491) - http://www.bohemiancoding.com/sketch -->
    <title>39CAF0B5-119E-4F57-8E3A-39302D1E4BBC</title>
    <desc>Created with sketchtool.</desc>
    <g id="Mobile-Page" stroke="none" stroke-width="1" fill="none" fill-rule="evenodd">
        <g id="M_SIG_View02_1" transform="translate(-312.000000, -101.000000)">
            <g id="body" transform="translate(0.000000, 80.000000)">
                <g id="chart">
                    <g id="favorite" transform="translate(304.000000, 18.000000)">
                        <g id="contents/ic_favorite_normal_24px" transform="translate(8.000000, 3.000000)">
                            <g id="Path">
                                <polygon fill-opacity="0.01" fill="#FFFFFF" opacity="0.5" points="0 0 24 0 24 24 0 24"></polygon>
                                <path d="M13.9532479,9.80035131 L13.65947,9.10865205 L12.0002642,5.20203145 L10.0468126,9.81176395 L9.29572743,9.87552066 L5.05852262,10.2351851 L8.84855746,13.5191935 L8.67737757,14.2537109 L7.71260055,18.3934808 L12.0012893,15.8099333 L12.6469058,16.2004146 L16.2874002,18.4022559 L15.1517436,13.5189326 L18.9435449,10.2333936 L13.9532479,9.80035131 Z M20.21,10.79 L16.54,13.97 L17.64,18.7 C17.84,19.56 16.91,20.24 16.15,19.78 L12,17.27 L7.85,19.77 C7.09,20.23 6.16,19.55 6.36,18.69 L7.46,13.97 L3.79,10.79 C3.12,10.21 3.48,9.11 4.36,9.04 L9.19,8.63 L11.08,4.17 C11.42,3.36 12.58,3.36 12.92,4.17 L14.81,8.62 L19.65,9.04 C20.53,9.11 20.88,10.21 20.21,10.79 Z" fill="#D2D2D2" fill-rule="nonzero"></path>
                            </g>
                        </g>
                    </g>
                </g>
            </g>
        </g>
    </g>
</svg>