<?xml version="1.0" encoding="UTF-8"?>
<svg width="32px" height="32px" viewBox="0 0 32 32" version="1.1" xmlns="http://www.w3.org/2000/svg" xmlns:xlink="http://www.w3.org/1999/xlink">
    <!-- Generator: sketchtool 52.6 (67491) - http://www.bohemiancoding.com/sketch -->
    <title>DA9CA5F7-E1C4-4CE2-B56B-77CC9EA96AD0</title>
    <desc>Created with sketchtool.</desc>
    <g id="Mobile-Page" stroke="none" stroke-width="1" fill="none" fill-rule="evenodd">
        <g id="M_PP_MY_Index02" transform="translate(-236.000000, -1949.000000)">
            <g id="bottom" transform="translate(0.000000, 1944.000000)">
                <g id="btn_history_on" transform="translate(216.000000, 1.000000)">
                    <g id="nav-bar/ic_history_on_32px" transform="translate(20.000000, 4.000000)">
                        <g>
                            <rect id="path" fill-opacity="0.01" fill="#FFFFFF" opacity="0.5" x="0" y="0" width="32" height="32"></rect>
                            <path d="M16.3193,2.72 C16.1453,2.72 15.9423,2.72 15.7683,2.749 C15.3033,2.778 14.8393,2.865 14.3753,3.01 C13.8813,3.184 13.3883,3.446 12.8953,3.764 C12.3433,4.113 11.8503,4.519 11.4153,4.983 C10.5733,5.854 10.0223,6.841 9.7613,7.885 C9.5283,8.756 9.5003,9.597 9.7033,10.439 C9.6163,10.497 9.5283,10.584 9.4423,10.7 C9.0653,11.222 9.0353,12.035 9.3833,13.254 C9.6163,14.095 9.9353,14.936 10.4573,15.343 C10.6023,16.126 10.8633,16.852 11.2123,17.49 L11.2123,18.796 C10.2253,19.289 7.5273,20.74 4.8573,22.801 C3.6963,23.7 3.0003,25.122 3.0003,26.602 L3.0003,28.053 C3.0003,29.126 3.8703,29.997 4.9443,29.997 L27.0553,29.997 C28.1303,29.938 29.0003,29.068 29.0003,28.024 L29.0003,26.573 C29.0003,25.093 28.3033,23.671 27.1423,22.771 C24.4733,20.682 21.7743,19.26 20.7883,18.767 L20.7883,17.142 C20.9913,16.707 21.1353,16.242 21.2523,15.749 C21.9773,15.459 22.3543,14.443 22.6163,13.514 C22.9643,12.296 22.9353,11.426 22.5293,10.932 C22.9643,8.582 22.7603,6.841 21.9483,5.738 C21.5133,5.186 21.0203,4.926 20.7013,4.809 C20.4683,4.461 19.9753,3.91 19.1633,3.474 C18.3213,2.981 17.3643,2.72 16.3193,2.72 M16.2073,4.719 C16.2453,4.719 16.2833,4.72 16.3193,4.72 C16.9913,4.72 17.6083,4.882 18.1513,5.2 C18.1733,5.213 18.1963,5.225 18.2183,5.238 C18.7683,5.533 19.0103,5.88 19.0373,5.919 C19.2733,6.273 19.6173,6.543 20.0173,6.689 C20.0593,6.704 20.2043,6.767 20.3583,6.951 C20.7973,7.582 20.8723,8.896 20.5623,10.568 C20.4673,11.077 20.5753,11.6 20.8563,12.029 C20.8593,12.152 20.8413,12.444 20.6903,12.973 C20.5143,13.6 20.3813,13.873 20.3153,13.982 C19.8083,14.251 19.4383,14.726 19.3053,15.291 C19.2103,15.696 19.1023,16.025 18.9753,16.296 C18.8513,16.561 18.7883,16.849 18.7883,17.142 L18.7883,18.767 C18.7883,19.524 19.2153,20.217 19.8933,20.556 C20.8703,21.044 23.4123,22.391 25.9183,24.352 C26.5953,24.877 27.0003,25.707 27.0003,26.573 L27.0003,27.981 C26.9923,27.987 26.9813,27.993 26.9663,27.997 L5.0003,27.997 L5.0003,26.602 C5.0003,25.737 5.4043,24.907 6.0793,24.384 C8.8293,22.261 11.5823,20.846 12.1063,20.585 C12.7843,20.246 13.2123,19.553 13.2123,18.796 L13.2123,17.49 C13.2123,17.156 13.1283,16.826 12.9673,16.533 C12.7103,16.061 12.5273,15.538 12.4243,14.979 C12.3383,14.514 12.0903,14.095 11.7263,13.797 C11.6813,13.735 11.5203,13.477 11.3073,12.704 C11.1753,12.243 11.1443,11.971 11.1403,11.83 C11.6103,11.345 11.8103,10.645 11.6473,9.97 C11.5273,9.47 11.5413,8.971 11.7013,8.37 C11.8823,7.649 12.2693,6.977 12.8743,6.351 C13.1913,6.013 13.5573,5.712 13.9813,5.444 C14.3603,5.199 14.7043,5.019 15.0073,4.908 C15.3043,4.818 15.6023,4.763 15.8923,4.745 C15.9613,4.741 16.0093,4.736 16.0763,4.725 C16.1193,4.72 16.1633,4.719 16.2073,4.719" id="Fill-1" fill="#6B40DD" fill-rule="nonzero"></path>
                        </g>
                    </g>
                </g>
            </g>
        </g>
    </g>
</svg>