<svg xmlns="http://www.w3.org/2000/svg" width="32" height="32" viewBox="0 0 32 32">
    <g fill="none" fill-rule="evenodd">
        <path fill="#FFF" fill-opacity=".01" d="M0 0h32v32H0z" opacity=".5"/>
        <path fill="#ADADAD" fill-rule="nonzero" d="M16.32 2.72c-.175 0-.378 0-.552.029a5.883 5.883 0 0 0-1.393.261 7.16 7.16 0 0 0-1.48.754 7.541 7.541 0 0 0-1.48 1.219c-.842.871-1.393 1.858-1.654 2.902-.233.871-.26 1.712-.058 2.554a1.09 1.09 0 0 0-.26.261c-.378.522-.408 1.335-.06 2.554.233.841.552 1.682 1.074 2.089.145.783.406 1.509.755 2.147v1.306a41.678 41.678 0 0 0-6.355 4.005A4.838 4.838 0 0 0 3 26.602v1.451c0 1.073.87 1.944 1.944 1.944h22.111C28.13 29.938 29 29.068 29 28.024v-1.451c0-1.48-.697-2.902-1.858-3.802-2.669-2.089-5.368-3.511-6.354-4.004v-1.625c.203-.435.347-.9.464-1.393.725-.29 1.102-1.306 1.364-2.235.348-1.218.32-2.088-.087-2.582.435-2.35.231-4.091-.58-5.194a2.855 2.855 0 0 0-1.248-.929c-.233-.348-.726-.899-1.538-1.335a5.557 5.557 0 0 0-2.844-.754m-.112 1.999l.112.001c.672 0 1.29.162 1.832.48l.067.038c.55.295.792.642.82.681.235.354.58.624.98.77a.848.848 0 0 1 .34.262c.44.631.514 1.945.204 3.617a1.998 1.998 0 0 0 .294 1.461c.003.123-.015.415-.166.944-.176.627-.309.9-.375 1.009a2 2 0 0 0-1.01 1.309 5.143 5.143 0 0 1-.33 1.005 1.992 1.992 0 0 0-.187.846v1.625a2 2 0 0 0 1.105 1.789c.977.488 3.52 1.835 6.025 3.796A2.826 2.826 0 0 1 27 26.573v1.408a.098.098 0 0 1-.034.016H5v-1.395c0-.865.404-1.695 1.08-2.218a39.676 39.676 0 0 1 6.026-3.799 2 2 0 0 0 1.106-1.789V17.49a1.99 1.99 0 0 0-.245-.957 5.22 5.22 0 0 1-.543-1.554 1.998 1.998 0 0 0-.698-1.182c-.045-.062-.206-.32-.419-1.093-.132-.461-.163-.733-.167-.874.47-.485.67-1.185.507-1.86-.12-.5-.106-.999.054-1.6.181-.721.568-1.393 1.173-2.019a5.618 5.618 0 0 1 1.107-.907 5.322 5.322 0 0 1 1.026-.536c.297-.09.595-.145.885-.163.07-.004.117-.009.184-.02.043-.005.087-.006.131-.006"/>
    </g>
</svg>
