<?xml version="1.0" encoding="UTF-8"?>
<svg width="24px" height="24px" viewBox="0 0 24 24" version="1.1" xmlns="http://www.w3.org/2000/svg" xmlns:xlink="http://www.w3.org/1999/xlink">
    <!-- Generator: sketchtool 52.6 (67491) - http://www.bohemiancoding.com/sketch -->
    <title>94D5C37E-B856-432C-AE7A-E85748C31B13</title>
    <desc>Created with sketchtool.</desc>
    <g id="Mobile-Page" stroke="none" stroke-width="1" fill="none" fill-rule="evenodd">
        <g id="M_GL_Search_02" transform="translate(-168.000000, -119.000000)">
            <g id="top">
                <g id="cell" transform="translate(0.000000, 88.000000)">
                    <g id="contents/ic_info_24px" transform="translate(168.000000, 31.000000)">
                        <g>
                            <polygon id="Path" fill-opacity="0.01" fill="#FFFFFF" opacity="0.5" points="0 0 24 0 24 24 0 24"></polygon>
                            <path d="M12,2 C17.52,2 22,6.48 22,12 C22,17.52 17.52,22 12,22 C6.48,22 2,17.52 2,12 C2,6.48 6.48,2 12,2 Z M12,20.5 C16.685625,20.5 20.5,16.685625 20.5,12 C20.5,7.314375 16.685625,3.5 12,3.5 C7.314375,3.5 3.5,7.314375 3.5,12 C3.5,16.685625 7.314375,20.5 12,20.5 Z M11.125,10.995 C11.125,10.5117508 11.5167508,10.12 12,10.12 C12.4832492,10.12 12.875,10.5117508 12.875,10.995 L12.875,15.995 C12.875,16.4782492 12.4832492,16.87 12,16.87 C11.5167508,16.87 11.125,16.4782492 11.125,15.995 L11.125,10.995 Z M11.88,7.12 L12.13,7.12 C12.5442136,7.12 12.88,7.45578644 12.88,7.87 L12.88,8.12 C12.88,8.53421356 12.5442136,8.87 12.13,8.87 L11.88,8.87 C11.4657864,8.87 11.13,8.53421356 11.13,8.12 L11.13,7.87 C11.13,7.45578644 11.4657864,7.12 11.88,7.12 Z" id="Combined-Shape" fill="#ADADAD" fill-rule="nonzero"></path>
                        </g>
                    </g>
                </g>
            </g>
        </g>
    </g>
</svg>