<?xml version="1.0" encoding="UTF-8"?>
<svg width="32px" height="32px" viewBox="0 0 32 32" version="1.1" xmlns="http://www.w3.org/2000/svg" xmlns:xlink="http://www.w3.org/1999/xlink">
    <!-- Generator: sketchtool 52.6 (67491) - http://www.bohemiancoding.com/sketch -->
    <title>1B965578-9E1B-4D72-A9F8-EF7FD18D9542</title>
    <desc>Created with sketchtool.</desc>
    <g id="Mobile-Page" stroke="none" stroke-width="1" fill="none" fill-rule="evenodd">
        <g id="M_SUB_Index" transform="translate(-308.000000, -1644.000000)">
            <g id="bottom" transform="translate(0.000000, 1639.000000)">
                <g id="btn_more_on" transform="translate(288.000000, 1.000000)">
                    <g id="nav-bar/ic_more_on_32px" transform="translate(20.000000, 4.000000)">
                        <g>
                            <polygon id="Path" fill-opacity="0.01" fill="#FFFFFF" opacity="0.5" points="0 0 32 0 32 32 0 32"></polygon>
                            <path d="M5,7 L27,7 C27.5522847,7 28,7.44771525 28,8 C28,8.55228475 27.5522847,9 27,9 L5,9 C4.44771525,9 4,8.55228475 4,8 C4,7.44771525 4.44771525,7 5,7 Z M5,15 L27,15 C27.5522847,15 28,15.4477153 28,16 C28,16.5522847 27.5522847,17 27,17 L5,17 C4.44771525,17 4,16.5522847 4,16 C4,15.4477153 4.44771525,15 5,15 Z M5,23 L27,23 C27.5522847,23 28,23.4477153 28,24 C28,24.5522847 27.5522847,25 27,25 L5,25 C4.44771525,25 4,24.5522847 4,24 C4,23.4477153 4.44771525,23 5,23 Z" id="Combined-Shape" fill="#6B40DD" fill-rule="nonzero"></path>
                        </g>
                    </g>
                </g>
            </g>
        </g>
    </g>
</svg>