<?xml version="1.0" encoding="UTF-8"?>
<svg width="40px" height="40px" viewBox="0 0 40 40" version="1.1" xmlns="http://www.w3.org/2000/svg" xmlns:xlink="http://www.w3.org/1999/xlink">
    <!-- Generator: sketchtool 52.6 (67491) - http://www.bohemiancoding.com/sketch -->
    <title>EAA77BC7-C16E-4E02-8605-4839A3922B24</title>
    <desc>Created with sketchtool.</desc>
    <g id="Mobile-Page" stroke="none" stroke-width="1" fill="none" fill-rule="evenodd">
        <g id="M_SUB_Index" transform="translate(-115.000000, -221.000000)">
            <g id="body" transform="translate(0.000000, 201.000000)">
                <g id="cell">
                    <g id="btn_notice" transform="translate(90.000000, 0.000000)">
                        <g id="contents/ic_notice_40px" transform="translate(25.000000, 20.000000)">
                            <g>
                                <rect id="path" fill-opacity="0.01" fill="#FFFFFF" opacity="0.5" x="0" y="0" width="40" height="40"></rect>
                                <path d="M24.5,13 L24.5,27 C24.5,27.5522847 24.9477153,28 25.5,28 C26.0522847,28 26.5,27.5522847 26.5,27 L26.5,13 C26.5,12.4477153 26.0522847,12 25.5,12 C24.9477153,12 24.5,12.4477153 24.5,13 Z M22.8622927,28.4303627 L13,25 L12,25 C11.8333333,27.25 11.75,28.75 11.75,29.5 C11.75,30.625 10.725,31.25 9.6,31.25 C8.625,31.25 7.725,30.9 7.5,30 L6,25 C3.525,25 2,22.975 2,20.5 L2,19 C2,16.525 4.025,14.5 6.5,14.5 L13,14.5 L22.9108756,11.4836466 C23.4318771,10.5959706 24.3963404,10 25.5,10 C27.1568542,10 28.5,11.3431458 28.5,13 L28.5,27 C28.5,28.6568542 27.1568542,30 25.5,30 C24.3610688,30 23.3703733,29.3653278 22.8622927,28.4303627 Z M22.5,13.5 L14,16.2063953 L14,23.2936047 L22.5,26.5 L22.5,13.5 Z M4,20.4 C4,21.83 5.2,23 6.66666667,23 L12,23 L12,16.5 L6.66666667,16.5 C5.2,16.5 4,17.67 4,19.1 L4,20.4 Z M10,29 L10,25 L8,25 L9,29 C9,29.225 9.3125,29.5 9.5,29.5 C9.6875,29.5 10,29.3 10,29 Z M32,19.5 L37,19.5 C37.5522847,19.5 38,19.9477153 38,20.5 C38,21.0522847 37.5522847,21.5 37,21.5 L32,21.5 C31.4477153,21.5 31,21.0522847 31,20.5 C31,19.9477153 31.4477153,19.5 32,19.5 Z M31.5732441,13.7395311 C31.1206772,14.0560775 30.4971876,13.945811 30.1806412,13.4932441 C29.8640949,13.0406772 29.9743613,12.4171876 30.4269283,12.1006412 L34.6016578,9.18064125 C35.0542247,8.86409487 35.6777143,8.97436133 35.9942606,9.42692828 C36.310807,9.87949522 36.2005405,10.5029848 35.7479736,10.8195311 L31.5732441,13.7395311 Z M31.5732441,27.1806412 L35.7479736,30.1006412 C36.2005405,30.4171876 36.310807,31.0406772 35.9942606,31.4932441 C35.6777143,31.945811 35.0542247,32.0560775 34.6016578,31.7395311 L30.4269283,28.8195311 C29.9743613,28.5029848 29.8640949,27.8794952 30.1806412,27.4269283 C30.4971876,26.9743613 31.1206772,26.8640949 31.5732441,27.1806412 Z" id="Combined-Shape" fill="#484848" fill-rule="nonzero"></path>
                            </g>
                        </g>
                    </g>
                </g>
            </g>
        </g>
    </g>
</svg>