<svg xmlns="http://www.w3.org/2000/svg" width="24" height="24" viewBox="0 0 24 24">
    <g fill="none" fill-rule="evenodd">
        <path fill="#FFF" fill-opacity=".01" d="M0 0h24v24H0z" opacity=".5"/>
        <path fill="#777" fill-rule="nonzero" d="M12.875 12.875v5.25A.878.878 0 0 1 12 19a.878.878 0 0 1-.875-.875v-5.25h-5.25A.878.878 0 0 1 5 12c0-.481.394-.875.875-.875h5.25v-5.25c0-.481.394-.875.875-.875s.875.394.875.875v5.25h5.25c.481 0 .875.394.875.875a.878.878 0 0 1-.875.875h-5.25z"/>
    </g>
</svg>
