<?xml version="1.0" encoding="UTF-8"?>
<svg width="40px" height="40px" viewBox="0 0 40 40" version="1.1" xmlns="http://www.w3.org/2000/svg" xmlns:xlink="http://www.w3.org/1999/xlink">
    <!-- Generator: sketchtool 52.6 (67491) - http://www.bohemiancoding.com/sketch -->
    <title>1126AD9D-3C8B-42EB-9F5B-0489F88C2AE2</title>
    <desc>Created with sketchtool.</desc>
    <g id="Mobile-Page" stroke="none" stroke-width="1" fill="none" fill-rule="evenodd">
        <g id="M_SUB_Index" transform="translate(-205.000000, -221.000000)">
            <g id="body" transform="translate(0.000000, 201.000000)">
                <g id="cell">
                    <g id="btn_value" transform="translate(180.000000, 0.000000)">
                        <g id="contents/ic_price_40px" transform="translate(25.000000, 20.000000)">
                            <g>
                                <rect id="path" fill-opacity="0.01" fill="#FFFFFF" opacity="0.5" x="0" y="0" width="40" height="40"></rect>
                                <path d="M4.47885213,30.8778956 C3.99400379,31.1423583 3.38656716,30.9637005 3.12210443,30.4788521 C2.8576417,29.9940038 3.03629953,29.3865672 3.52114787,29.1221044 L9.02114787,26.1221044 C9.39357253,25.9189637 9.85364127,25.9729147 10.1689647,26.2567059 L14.3217181,29.9941839 L19.1759581,22.9334712 C19.4544603,22.5283771 19.9860927,22.3857867 20.4299336,22.5971395 L24.7623682,24.6602036 L29.590312,14.0847077 C29.6904872,13.8652764 29.8666021,13.6894494 30.0861971,13.5896335 L35.5861971,11.0896335 C36.0889786,10.8610965 36.6818294,11.0834155 36.9103665,11.5861971 C37.1389035,12.0889786 36.9165845,12.6818294 36.4138029,12.9103665 L31.2543409,15.2555765 L26.159688,26.4152923 C25.9277039,26.923448 25.3244082,27.1430233 24.8200664,26.9028605 L20.3405668,24.7697654 L15.3240419,32.0665288 C14.9818721,32.5642304 14.2799671,32.6473328 13.8310353,32.2432941 L9.35729419,28.2169272 L4.47885213,30.8778956 Z M11,33.5 C11,32.9477153 11.4477153,32.5 12,32.5 C12.5522847,32.5 13,32.9477153 13,33.5 L13,36 C13,36.5522847 12.5522847,37 12,37 L7,37 C6.44771525,37 6,36.5522847 6,36 L6,32 C6,31.4477153 6.44771525,31 7,31 C7.55228475,31 8,31.4477153 8,32 L8,35 L11,35 L11,33.5 Z M8,22 L8,24.5 C8,25.0522847 7.55228475,25.5 7,25.5 C6.44771525,25.5 6,25.0522847 6,24.5 L6,21 C6,20.4477153 6.44771525,20 7,20 L12,20 C12.5522847,20 13,20.4477153 13,21 L13,25 C13,25.5522847 12.5522847,26 12,26 C11.4477153,26 11,25.5522847 11,25 L11,22 L8,22 Z M21.5,28 C21.5,27.4477153 21.9477153,27 22.5,27 C23.0522847,27 23.5,27.4477153 23.5,28 L23.5,36 C23.5,36.5522847 23.0522847,37 22.5,37 L17.5,37 C16.9477153,37 16.5,36.5522847 16.5,36 L16.5,33 C16.5,32.4477153 16.9477153,32 17.5,32 C18.0522847,32 18.5,32.4477153 18.5,33 L18.5,35 L21.5,35 L21.5,28 Z M18.5,14 L18.5,22 C18.5,22.5522847 18.0522847,23 17.5,23 C16.9477153,23 16.5,22.5522847 16.5,22 L16.5,13 C16.5,12.4477153 16.9477153,12 17.5,12 L22.5,12 C23.0522847,12 23.5,12.4477153 23.5,13 L23.5,21 C23.5,21.5522847 23.0522847,22 22.5,22 C21.9477153,22 21.5,21.5522847 21.5,21 L21.5,14 L18.5,14 Z M32,35 L32,17 C32,16.4477153 32.4477153,16 33,16 C33.5522847,16 34,16.4477153 34,17 L34,36 C34,36.5522847 33.5522847,37 33,37 L28,37 C27.4477153,37 27,36.5522847 27,36 L27,27 C27,26.4477153 27.4477153,26 28,26 C28.5522847,26 29,26.4477153 29,27 L29,35 L32,35 Z M29,12 C29,12.5522847 28.5522847,13 28,13 C27.4477153,13 27,12.5522847 27,12 L27,4 C27,3.44771525 27.4477153,3 28,3 L33,3 C33.5522847,3 34,3.44771525 34,4 L34,10 C34,10.5522847 33.5522847,11 33,11 C32.4477153,11 32,10.5522847 32,10 L32,5 L29,5 L29,12 Z" id="Combined-Shape" fill="#484848" fill-rule="nonzero"></path>
                            </g>
                        </g>
                    </g>
                </g>
            </g>
        </g>
    </g>
</svg>