<?xml version="1.0" encoding="UTF-8"?>
<svg width="24px" height="24px" viewBox="0 0 24 24" version="1.1" xmlns="http://www.w3.org/2000/svg" xmlns:xlink="http://www.w3.org/1999/xlink">
    <!-- Generator: sketchtool 52.6 (67491) - http://www.bohemiancoding.com/sketch -->
    <title>9893C210-AC5C-4ECA-BD5F-60741101861E</title>
    <desc>Created with sketchtool.</desc>
    <g id="Mobile-Page" stroke="none" stroke-width="1" fill="none" fill-rule="evenodd">
        <g id="M_SIG_PriceAlarm_View01" transform="translate(-111.000000, -341.000000)">
            <g id="body" transform="translate(0.000000, 80.000000)">
                <g id="info" transform="translate(0.000000, 196.000000)">
                    <g id="section" transform="translate(0.000000, 46.000000)">
                        <g id="contents/ic_question_24px" transform="translate(111.000000, 19.000000)">
                            <g>
                                <polygon id="Path" fill-opacity="0.01" fill="#FFFFFF" opacity="0.5" points="0 0 24 0 24 24 0 24"></polygon>
                                <path d="M12,2 C17.52,2 22,6.48 22,12 C22,17.52 17.52,22 12,22 C6.48,22 2,17.52 2,12 C2,6.48 6.48,2 12,2 Z M12,20.5 C16.685625,20.5 20.5,16.685625 20.5,12 C20.5,7.314375 16.685625,3.5 12,3.5 C7.314375,3.5 3.5,7.314375 3.5,12 C3.5,16.685625 7.314375,20.5 12,20.5 Z M10.8803828,13.8620839 C10.5358852,11.6117662 12.9760766,10.71723 12.9760766,9.37542567 C12.9760766,8.67656925 12.5023923,8.22930114 11.7559809,8.22930114 C11.1244019,8.22930114 10.6220096,8.5507751 10.1626794,9.01202033 L9,7.97771283 C9.74641148,7.15306226 10.7655502,6.58 12.0143541,6.58 C13.7368421,6.58 15,7.44658196 15,9.23565438 C15,11.2204066 12.5023923,11.8913088 12.7177033,13.8620839 L10.8803828,13.8620839 Z M11.7990431,17.58 C11.0526316,17.58 10.492823,16.9929606 10.492823,16.2381957 C10.492823,15.4834307 11.0526316,14.8963914 11.7990431,14.8963914 C12.5598086,14.8963914 13.1196172,15.4834307 13.1196172,16.2381957 C13.1196172,16.9929606 12.5598086,17.58 11.7990431,17.58 Z" id="Combined-Shape" fill="#ADADAD" fill-rule="nonzero"></path>
                            </g>
                        </g>
                    </g>
                </g>
            </g>
        </g>
    </g>
</svg>