<?xml version="1.0" encoding="UTF-8"?>
<svg width="40px" height="40px" viewBox="0 0 40 40" version="1.1" xmlns="http://www.w3.org/2000/svg" xmlns:xlink="http://www.w3.org/1999/xlink">
    <!-- Generator: sketchtool 52.6 (67491) - http://www.bohemiancoding.com/sketch -->
    <title>4CCDEE57-4A8F-4100-B6EE-56DC8D55DCCD</title>
    <desc>Created with sketchtool.</desc>
    <g id="Mobile-Page" stroke="none" stroke-width="1" fill="none" fill-rule="evenodd">
        <g id="M_SUB_Index" transform="translate(-295.000000, -221.000000)">
            <g id="body" transform="translate(0.000000, 201.000000)">
                <g id="cell">
                    <g id="btn_setting" transform="translate(270.000000, 0.000000)">
                        <g id="contents/ic_setting_40px" transform="translate(25.000000, 20.000000)">
                            <g>
                                <rect id="path" fill-opacity="0.01" fill="#FFFFFF" opacity="0.5" x="0" y="0" width="40" height="40"></rect>
                                <path d="M36.8936006,18.1115956 C37.037867,19.4018468 37.0355114,20.7018641 36.8857487,21.9799908 C36.7673207,22.9773479 35.87529,23.724415 34.9304065,23.6461313 L34.7583817,23.6413461 C33.7462217,23.6413461 32.7952642,24.2714771 32.4072199,25.1973066 C31.9934582,26.1831915 32.2525419,27.335845 33.0525339,28.0602935 C33.7947442,28.7318849 33.8837226,29.8657336 33.2569545,30.6438654 C32.4476509,31.6518294 31.5225731,32.5665034 30.500039,33.3682981 C29.7207393,33.9703206 28.6127081,33.8790544 27.9416332,33.1491308 C27.2682219,32.4093653 26.0191619,32.1233726 25.0973884,32.4998573 C24.1237131,32.8985096 23.4901323,33.8857539 23.5287755,34.952929 C23.5618743,35.940816 22.8304288,36.7881677 21.8477512,36.8965946 C21.2274175,36.965603 20.6049645,37 19.9807255,37 C19.3247856,37 18.6710102,36.9620986 18.0230622,36.886516 C17.0283959,36.7719738 16.2950149,35.9000147 16.3538251,34.9018219 C16.414921,33.82437 15.7902579,32.8218247 14.8004734,32.4077955 C13.8781263,32.0206757 12.6164178,32.3059284 11.9391575,33.0550212 C11.2659915,33.7967718 10.1328506,33.8861389 9.35385398,33.2584534 C8.35758148,32.4566324 7.4514673,31.5403078 6.66455071,30.5380301 C6.05196146,29.7616309 6.14274327,28.6449345 6.8711707,27.975812 C7.65753588,27.254995 7.91626184,26.1109701 7.51660413,25.1366046 C7.11793918,24.1664846 6.16597861,23.5383064 5.14937042,23.563955 C4.19049885,23.563955 3.21626356,22.8764395 3.10635258,21.8883054 C2.96219357,20.5990134 2.96448692,19.297952 3.11422291,18.0190635 C3.23272857,17.0339141 4.04682991,16.3208673 5.03125681,16.3530346 C6.20404009,16.3530346 7.19941975,15.7348435 7.59056992,14.8034926 C8.00480074,13.8158079 7.74654948,12.6634875 6.94510876,11.9377235 C6.20659993,11.2657932 6.11671935,10.1346505 6.74224408,9.35661075 C7.54676421,8.35266115 8.47341221,7.43674804 9.49636555,6.63418658 C10.2749249,6.02739067 11.3908787,6.12003969 12.058423,6.85174523 C12.7288877,7.58912077 13.983809,7.87525996 14.9003682,7.50088635 C15.8751638,7.10161719 16.5084547,6.11453293 16.4708977,5.04603602 C16.437758,4.0586996 17.1697142,3.21155968 18.1523347,3.10311107 C19.4225024,2.96219506 20.7036626,2.96587738 21.9778918,3.11325203 C22.9734529,3.22920008 23.7051665,4.09992094 23.6458443,5.09770984 C23.5847768,6.17406173 24.2093518,7.17785335 25.1938055,7.59196489 C26.1214119,7.97900033 27.3840874,7.69365071 28.0572164,6.94818506 C28.7278509,6.20560694 29.8627507,6.11555489 30.6405785,6.73973215 C31.6326288,7.53441823 32.5391979,8.44979046 33.3352395,9.46063687 C33.9483377,10.237681 33.8585524,11.3564327 33.128874,12.0234551 C32.3439661,12.7434351 32.0849325,13.8890416 32.4834295,14.863898 C32.8742361,15.8174836 33.8082566,16.4355454 34.8712564,16.4355454 C35.8249053,16.4355454 36.7832002,17.130226 36.8936006,18.1115956 Z M34.8712564,18.4355454 C33.0015717,18.4355454 31.3333362,17.3316375 30.6324727,15.6214982 C29.9294079,13.9015696 30.35998,11.9087633 31.7020398,10.6199196 C31.036589,9.78643251 30.2866418,9.02894639 29.4703898,8.36539338 C28.2195206,9.68044822 26.1028842,10.1383785 24.4209995,9.43662272 C22.6854563,8.70657255 21.5815283,6.9705055 21.6444056,5.08836962 C20.5875539,4.97344468 19.5259137,4.97051109 18.4721751,5.08023787 C18.4956741,6.94188476 17.3787874,8.64700853 15.6575281,9.35202328 C13.9924446,10.0321367 11.892299,9.57278421 10.6488392,8.27250439 C9.80724345,8.9420328 9.03957498,9.70069958 8.36660376,10.5284366 C9.73336735,11.8246514 10.1641834,13.8381953 9.43473907,15.5774693 C8.73250785,17.2495225 7.03863828,18.3202398 5.08925049,18.3518009 C4.96866162,19.4449296 4.9703092,20.5601307 5.09403022,21.6666361 C5.07895339,21.5310908 5.12552313,21.563955 5.1238282,21.5642812 C6.94872789,21.517654 8.65418171,22.643046 9.36674516,24.3770141 C10.0725896,26.0978618 9.64145352,28.0912933 8.2980764,29.3793934 C8.95656771,30.2064382 9.70676594,30.9652741 10.5279912,31.6356785 C11.7819243,30.318658 13.898894,29.8603761 15.5733799,30.5631779 C17.3129397,31.2908385 18.418484,33.0272581 18.3552692,34.9113502 C18.8941358,34.9704324 19.4364568,35 19.9807255,35 C20.4976818,35 21.0130017,34.9732633 21.5274263,34.9195501 C21.5021836,33.0590249 22.6199899,31.3530381 24.3403733,30.6486611 C26.0120048,29.9659074 28.1075117,30.4267586 29.3506003,31.7276617 C30.1888554,31.0610984 30.9554625,30.3032729 31.6330105,29.4713686 C30.2659714,28.1749056 29.8337703,26.1610126 30.5628665,24.4237692 C31.2627759,22.7538644 32.9417244,21.6413461 34.7842449,21.6416806 L34.9108867,21.6457194 C35.0312643,20.5535204 35.0296383,19.4410515 34.9062868,18.3365199 C34.9202337,18.4626463 34.882808,18.4355454 34.8712564,18.4355454 Z M20.0253753,24.3707511 C22.4160689,24.3707511 24.362277,22.4245609 24.362277,20.0338618 C24.362277,17.6432372 22.4160243,15.6969725 20.0253753,15.6969725 C17.6346221,15.6969725 15.6883545,17.6432222 15.6883545,20.0338618 C15.6883545,22.4245759 17.6345776,24.3707511 20.0253753,24.3707511 Z M20.0253753,26.3707511 C16.5300191,26.3707511 13.6883545,23.5291565 13.6883545,20.0338618 C13.6883545,16.5386485 16.5300568,13.6969725 20.0253753,13.6969725 C23.5205966,13.6969725 26.362277,16.5386704 26.362277,20.0338618 C26.362277,23.5291346 23.5206343,26.3707511 20.0253753,26.3707511 Z" id="Shape" fill="#484848" fill-rule="nonzero"></path>
                            </g>
                        </g>
                    </g>
                </g>
            </g>
        </g>
    </g>
</svg>