<?xml version="1.0" encoding="UTF-8"?>
<svg width="20px" height="20px" viewBox="0 0 20 20" version="1.1" xmlns="http://www.w3.org/2000/svg" xmlns:xlink="http://www.w3.org/1999/xlink">
    <!-- Generator: sketchtool 52.6 (67491) - http://www.bohemiancoding.com/sketch -->
    <title>42C34E0F-0753-47B1-BD32-FD53EFA70228</title>
    <desc>Created with sketchtool.</desc>
    <g id="Mobile-Page" stroke="none" stroke-width="1" fill="none" fill-rule="evenodd">
        <g id="M_SUB_Customer_FAQ01" transform="translate(-189.000000, -607.000000)">
            <g id="body" transform="translate(0.000000, 81.000000)">
                <g id="contact" transform="translate(0.000000, 503.000000)">
                    <g id="contents/ic_talk_20px" transform="translate(189.000000, 23.000000)">
                        <g>
                            <rect id="bounds" fill-opacity="0.01" fill="#FFFFFF" opacity="0.5" x="0" y="0" width="20" height="20"></rect>
                            <path d="M10,2.62 C5.58,2.62 2,5.44 2,8.93 C2.12245223,11.2818728 3.57933731,13.3564772 5.75,14.27 C5.63,14.69 4.96,16.99 4.94,17.17 C4.94,17.17 4.94,17.31 5.01,17.36 C5.07063675,17.3861368 5.13936325,17.3861368 5.2,17.36 C5.45,17.36 8.12,15.45 8.58,15.13 C9.05067775,15.1939577 9.52500404,15.2273609 10,15.23 C14.42,15.23 18,12.4 18,8.92 C18,5.44 14.42,2.62 10,2.62 Z" id="Path" fill="#777777" fill-rule="nonzero"></path>
                        </g>
                    </g>
                </g>
            </g>
        </g>
    </g>
</svg>