<?xml version="1.0" encoding="UTF-8"?>
<svg width="40px" height="40px" viewBox="0 0 40 40" version="1.1" xmlns="http://www.w3.org/2000/svg" xmlns:xlink="http://www.w3.org/1999/xlink">
    <!-- Generator: sketchtool 52.6 (67491) - http://www.bohemiancoding.com/sketch -->
    <title>BCB7E603-16B8-42E1-9550-208E70C35734</title>
    <desc>Created with sketchtool.</desc>
    <defs>
        <rect id="path-1" x="0" y="0" width="40" height="40"></rect>
    </defs>
    <g id="Mobile-Page" stroke="none" stroke-width="1" fill="none" fill-rule="evenodd">
        <g id="M_INF_Index01" transform="translate(-1.000000, -407.000000)">
            <g id="body" transform="translate(0.000000, 200.000000)">
                <g id="section">
                    <g id="rank" transform="translate(0.000000, 56.000000)">
                        <g id="cell" transform="translate(0.000000, 145.000000)">
                            <g id="list" transform="translate(1.000000, 6.000000)">
                                <g id="contents/ic_third_40px">
                                    <g>
                                        <mask id="mask-2" fill="white">
                                            <use xlink:href="#path-1"></use>
                                        </mask>
                                        <use id="Mask" fill-opacity="0.01" fill="#FFFFFF" opacity="0.5" xlink:href="#path-1"></use>
                                        <g id="gold-medal" mask="url(#mask-2)">
                                            <g transform="translate(-13.000000, -82.000000)">
                                                <path d="M19.410101,39.9515152 C8.74343434,39.9515152 0.0161616162,31.2242424 0.0161616162,20.5575758 C0.0161616162,9.89090909 8.74343434,1.16363636 19.410101,1.16363636 C30.0767677,1.16363636 38.8040404,9.89090909 38.8040404,20.5575758 C38.8040404,31.2242424 30.0767677,39.9515152 19.410101,39.9515152 Z" id="Path" fill="#DBAB56" fill-rule="evenodd"></path>
                                                <circle id="Oval" fill="#EFB30C" fill-rule="evenodd" cx="19.410101" cy="19.3939394" r="18.1656566"></circle>
                                                <g id="Group" stroke-width="1" fill="none" fill-rule="evenodd" transform="translate(1.212121, 1.212121)">
                                                    <path d="M2.16565657,20.379798 C2.16565657,10.359596 10.3111111,2.21414141 20.3313131,2.21414141 C24.7919192,2.21414141 28.8646465,3.83030303 32.0323232,6.48080808 C28.7353535,2.53737374 23.7575758,0.0161616162 18.1979798,0.0161616162 C8.17777778,0.0161616162 0.0323232323,8.16161616 0.0323232323,18.1818182 C0.0323232323,23.7414141 2.55353535,28.7191919 6.4969697,32.0808081 C3.78181818,28.9131313 2.16565657,24.840404 2.16565657,20.379798 Z" id="Path" fill="#E5A300"></path>
                                                    <path d="M31.0626263,5.38181818 C38.1737374,12.4929293 38.1737374,24 31.0626263,31.1111111 C23.9515152,38.2222222 12.4444444,38.2222222 5.33333333,31.1111111" id="Path" fill="#E5A300"></path>
                                                </g>
                                                <path d="M19.410101,38.7878788 C8.74343434,38.7878788 0.0161616162,30.0606061 0.0161616162,19.3939394 C0.0161616162,8.72727273 8.74343434,0 19.410101,0 C30.0767677,0 38.8040404,8.72727273 38.8040404,19.3939394 C38.8040404,30.0606061 30.0767677,38.7878788 19.410101,38.7878788 Z M19.410101,2.45656566 C10.0363636,2.45656566 2.47272727,10.0848485 2.47272727,19.3939394 C2.47272727,28.7676768 10.1010101,36.3313131 19.410101,36.3313131 C28.7191919,36.3313131 36.3474747,28.7030303 36.3474747,19.3939394 C36.3474747,10.0848485 28.7838384,2.45656566 19.410101,2.45656566 Z" id="Shape" fill="#F7D27F" fill-rule="nonzero"></path>
                                                <path d="M38.8040404,19.3939394 C38.8040404,14.4808081 36.9939394,10.020202 34.020202,6.65858586 C30.5939394,3.68484848 26.1333333,1.87474747 21.220202,1.87474747 C17.9232323,1.87474747 14.8848485,2.71515152 12.169697,4.13737374 C14.3676768,3.03838384 16.8242424,2.45656566 19.410101,2.45656566 C24.5171717,2.45656566 29.1717172,4.78383838 32.2747475,8.4040404 C35.8949495,11.5070707 38.1575758,16.0969697 38.1575758,21.2686869 C38.1575758,23.8545455 37.5757576,26.3111111 36.5414141,28.5090909 C37.9636364,25.7939394 38.8040404,22.6909091 38.8040404,19.3939394 Z" id="Path" fill="#EFC273" fill-rule="evenodd"></path>
                                                <path d="M1.82626263,21.2686869 C1.82626263,26.1818182 3.63636364,30.6424242 6.61010101,34.0040404 C10.0363636,36.9777778 14.4969697,38.7878788 19.3454545,38.7878788 C22.6424242,38.7878788 25.6808081,37.9474747 28.3959596,36.5252525 C26.1979798,37.559596 23.7414141,38.1414141 21.1555556,38.1414141 C16.0484848,38.1414141 11.3939394,35.8141414 8.29090909,32.1939394 C4.67070707,29.0909091 2.34343434,24.5010101 2.34343434,19.3292929 C2.34343434,16.7434343 2.92525253,14.2868687 3.95959596,12.0888889 C2.66666667,14.8686869 1.82626263,17.9717172 1.82626263,21.2686869 Z" id="Path" fill="#EAC06C" fill-rule="evenodd"></path>
                                                <path d="M20.5090909,7.17575758 C20.5090909,7.75757576 19.9919192,8.72727273 19.410101,8.72727273 C18.8282828,8.72727273 18.3111111,7.75757576 18.3111111,7.17575758 C18.3111111,6.59393939 18.8282828,6.07676768 19.410101,6.07676768 C19.9919192,6.07676768 20.5090909,6.59393939 20.5090909,7.17575758 Z" id="Path" fill="#E5A300" fill-rule="evenodd"></path>
                                                <circle id="Oval" fill="#F7D27F" fill-rule="evenodd" cx="19.410101" cy="7.17575758" r="1.0989899"></circle>
                                                <path d="M20.1858586,6.4 C20.6383838,6.85252525 20.6383838,7.4989899 20.1858586,7.95151515 C19.7333333,8.4040404 19.0868687,8.4040404 18.6343434,7.95151515" id="Path" fill="#EFC273" fill-rule="evenodd"></path>
                                                <g id="Group" stroke-width="1" fill="none" fill-rule="evenodd" transform="translate(0.404040, 0.404040)">
                                                    <path d="M19.1353535,1.40606061 C19.1353535,1.47070707 19.0707071,1.53535354 19.0060606,1.53535354 C18.9414141,1.53535354 18.8767677,1.47070707 18.8767677,1.40606061 L18.8767677,0.177777778 C18.8767677,0.113131313 18.9414141,0.0484848485 19.0060606,0.0484848485 C19.0707071,0.0484848485 19.1353535,0.113131313 19.1353535,0.177777778 L19.1353535,1.40606061 Z" id="Path" fill="#FFE0A1"></path>
                                                    <path d="M19.1353535,37.8666667 C19.1353535,37.9313131 19.0707071,37.9959596 19.0060606,37.9959596 C18.9414141,37.9959596 18.8767677,37.9313131 18.8767677,37.8666667 L18.8767677,36.6383838 C18.8767677,36.5737374 18.9414141,36.5090909 19.0060606,36.5090909 C19.0707071,36.5090909 19.1353535,36.5737374 19.1353535,36.6383838 L19.1353535,37.8666667 Z" id="Path" fill="#FFE0A1"></path>
                                                    <path d="M31.5474747,6.70707071 C31.4828283,6.77171717 31.4181818,6.77171717 31.3535354,6.70707071 C31.2888889,6.64242424 31.2888889,6.57777778 31.3535354,6.51313131 L32.2585859,5.60808081 C32.3232323,5.54343434 32.3878788,5.54343434 32.4525253,5.60808081 C32.5171717,5.67272727 32.5171717,5.73737374 32.4525253,5.8020202 L31.5474747,6.70707071 Z" id="Path" fill="#FFE0A1"></path>
                                                    <path d="M5.81818182,32.4363636 C5.75353535,32.5010101 5.68888889,32.5010101 5.62424242,32.4363636 C5.55959596,32.3717172 5.55959596,32.3070707 5.62424242,32.2424242 L6.52929293,31.3373737 C6.59393939,31.2727273 6.65858586,31.2727273 6.72323232,31.3373737 C6.78787879,31.4020202 6.78787879,31.4666667 6.72323232,31.5313131 L5.81818182,32.4363636 Z" id="Path" fill="#FFE0A1"></path>
                                                    <path d="M36.589899,19.1838384 C36.5252525,19.1838384 36.4606061,19.1191919 36.4606061,19.0545455 C36.4606061,18.989899 36.5252525,18.9252525 36.589899,18.9252525 L37.8181818,18.9252525 C37.8828283,18.9252525 37.9474747,18.989899 37.9474747,19.0545455 C37.9474747,19.1191919 37.8828283,19.1838384 37.8181818,19.1838384 L36.589899,19.1838384 Z" id="Path" fill="#FFE0A1"></path>
                                                    <path d="M0.193939394,19.1838384 C0.129292929,19.1838384 0.0646464646,19.1191919 0.0646464646,19.0545455 C0.0646464646,18.989899 0.129292929,18.9252525 0.193939394,18.9252525 L1.42222222,18.9252525 C1.48686869,18.8606061 1.55151515,18.9252525 1.55151515,18.989899 C1.55151515,19.0545455 1.48686869,19.1191919 1.42222222,19.1191919 L0.193939394,19.1191919 L0.193939394,19.1838384 Z" id="Path" fill="#FFE0A1"></path>
                                                    <path d="M31.3535354,31.5959596 C31.2888889,31.5313131 31.2888889,31.4666667 31.3535354,31.4020202 C31.4181818,31.3373737 31.4828283,31.3373737 31.5474747,31.4020202 L32.4525253,32.3070707 C32.5171717,32.3717172 32.5171717,32.4363636 32.4525253,32.5010101 C32.3878788,32.5656566 32.3232323,32.5656566 32.2585859,32.5010101 L31.3535354,31.5959596 Z" id="Path" fill="#FFE0A1"></path>
                                                    <path d="M5.55959596,5.8020202 C5.49494949,5.73737374 5.49494949,5.67272727 5.55959596,5.60808081 C5.62424242,5.54343434 5.68888889,5.54343434 5.75353535,5.60808081 L6.65858586,6.51313131 C6.72323232,6.57777778 6.72323232,6.64242424 6.65858586,6.70707071 C6.59393939,6.77171717 6.52929293,6.77171717 6.46464646,6.70707071 L5.55959596,5.8020202 Z" id="Path" fill="#FFE0A1"></path>
                                                    <path d="M10.3434343,3.73333333 C10.4080808,3.7979798 10.3434343,3.92727273 10.2787879,3.92727273 C10.2141414,3.99191919 10.0848485,3.92727273 10.0848485,3.86262626 L9.43838384,2.76363636 C9.37373737,2.6989899 9.43838384,2.56969697 9.5030303,2.56969697 C9.56767677,2.50505051 9.6969697,2.56969697 9.6969697,2.63434343 L10.3434343,3.73333333 Z" id="Path" fill="#FFE0A1"></path>
                                                    <path d="M28.5737374,35.2808081 C28.6383838,35.3454545 28.5737374,35.4747475 28.5090909,35.4747475 C28.4444444,35.5393939 28.3151515,35.4747475 28.3151515,35.410101 L27.6686869,34.3111111 C27.6040404,34.2464646 27.6686869,34.1171717 27.7333333,34.1171717 C27.7979798,34.0525253 27.9272727,34.1171717 27.9272727,34.1818182 L28.5737374,35.2808081 Z" id="Path" fill="#FFE0A1"></path>
                                                    <path d="M23.7252525,2.05252525 C23.7252525,2.11717172 23.5959596,2.18181818 23.5313131,2.18181818 C23.4666667,2.18181818 23.4020202,2.05252525 23.4020202,1.98787879 L23.7252525,0.75959596 C23.7252525,0.694949495 23.8545455,0.63030303 23.9191919,0.63030303 C23.9838384,0.63030303 24.0484848,0.75959596 24.0484848,0.824242424 L23.7252525,2.05252525 Z" id="Path" fill="#FFE0A1"></path>
                                                    <path d="M14.2868687,37.220202 C14.2868687,37.2848485 14.1575758,37.3494949 14.0929293,37.3494949 C14.0282828,37.3494949 13.9636364,37.220202 13.9636364,37.1555556 L14.2868687,35.9272727 C14.2868687,35.8626263 14.4161616,35.7979798 14.4808081,35.7979798 C14.5454545,35.7979798 14.610101,35.9272727 14.610101,35.9919192 L14.2868687,37.220202 Z" id="Path" fill="#FFE0A1"></path>
                                                    <path d="M34.3272727,10.3272727 C34.2626263,10.3919192 34.1333333,10.3272727 34.1333333,10.2626263 C34.0686869,10.1979798 34.1333333,10.0686869 34.1979798,10.0686869 L35.2969697,9.42222222 C35.3616162,9.35757576 35.4909091,9.42222222 35.4909091,9.48686869 C35.5555556,9.55151515 35.4909091,9.68080808 35.4262626,9.68080808 L34.3272727,10.3272727 Z" id="Path" fill="#FFE0A1"></path>
                                                    <path d="M2.77979798,28.5575758 C2.71515152,28.6222222 2.58585859,28.5575758 2.58585859,28.4929293 C2.52121212,28.4282828 2.58585859,28.2989899 2.65050505,28.2989899 L3.74949495,27.6525253 C3.81414141,27.5878788 3.94343434,27.6525253 3.94343434,27.7171717 C4.00808081,27.7818182 3.94343434,27.9111111 3.87878788,27.9111111 L2.77979798,28.5575758 Z" id="Path" fill="#FFE0A1"></path>
                                                    <path d="M35.9434343,23.7090909 C35.8787879,23.7090909 35.8141414,23.579798 35.8141414,23.5151515 C35.8141414,23.4505051 35.9434343,23.3858586 36.0080808,23.3858586 L37.2363636,23.7090909 C37.3010101,23.7090909 37.3656566,23.8383838 37.3656566,23.9030303 C37.3656566,23.9676768 37.2363636,24.0323232 37.1717172,24.0323232 L35.9434343,23.7090909 Z" id="Path" fill="#FFE0A1"></path>
                                                    <path d="M0.775757576,14.2707071 C0.711111111,14.2707071 0.646464646,14.1414141 0.646464646,14.0767677 C0.646464646,14.0121212 0.775757576,13.9474747 0.84040404,13.9474747 L2.06868687,14.2707071 C2.13333333,14.2707071 2.1979798,14.4 2.1979798,14.4646465 C2.1979798,14.5292929 2.06868687,14.5939394 2.0040404,14.5939394 L0.775757576,14.2707071 Z" id="Path" fill="#FFE0A1"></path>
                                                    <path d="M3.87878788,10.0686869 C3.94343434,10.1333333 4.00808081,10.1979798 3.94343434,10.2626263 C3.87878788,10.3272727 3.81414141,10.3919192 3.74949495,10.3272727 L2.65050505,9.68080808 C2.58585859,9.61616162 2.52121212,9.55151515 2.58585859,9.48686869 C2.65050505,9.42222222 2.71515152,9.35757576 2.77979798,9.42222222 L3.87878788,10.0686869 Z" id="Path" fill="#FFE0A1"></path>
                                                    <path d="M35.4262626,28.2989899 C35.4909091,28.3636364 35.5555556,28.4282828 35.4909091,28.4929293 C35.4262626,28.5575758 35.3616162,28.6222222 35.2969697,28.5575758 L34.1979798,27.9111111 C34.1333333,27.8464646 34.0686869,27.7818182 34.1333333,27.7171717 C34.1979798,27.6525253 34.2626263,27.5878788 34.3272727,27.6525253 L35.4262626,28.2989899 Z" id="Path" fill="#FFE0A1"></path>
                                                    <path d="M14.610101,1.98787879 C14.610101,2.05252525 14.610101,2.18181818 14.4808081,2.18181818 C14.4161616,2.18181818 14.2868687,2.18181818 14.2868687,2.05252525 L13.9636364,0.824242424 C13.9636364,0.75959596 13.9636364,0.63030303 14.0929293,0.63030303 C14.1575758,0.63030303 14.2868687,0.63030303 14.2868687,0.75959596 L14.610101,1.98787879 Z" id="Path" fill="#FFE0A1"></path>
                                                    <path d="M24.0484848,37.1555556 C24.0484848,37.220202 24.0484848,37.3494949 23.9191919,37.3494949 C23.8545455,37.3494949 23.7252525,37.3494949 23.7252525,37.220202 L23.4020202,35.9919192 C23.4020202,35.9272727 23.4020202,35.7979798 23.5313131,35.7979798 C23.5959596,35.7979798 23.7252525,35.7979798 23.7252525,35.9272727 L24.0484848,37.1555556 Z" id="Path" fill="#FFE0A1"></path>
                                                    <path d="M27.9272727,3.86262626 C27.8626263,3.92727273 27.7979798,3.99191919 27.7333333,3.92727273 C27.6686869,3.86262626 27.6040404,3.7979798 27.6686869,3.73333333 L28.3151515,2.63434343 C28.379798,2.56969697 28.4444444,2.50505051 28.5090909,2.56969697 C28.5737374,2.63434343 28.6383838,2.6989899 28.5737374,2.76363636 L27.9272727,3.86262626 Z" id="Path" fill="#FFE0A1"></path>
                                                    <path d="M9.6969697,35.410101 C9.63232323,35.4747475 9.56767677,35.5393939 9.5030303,35.4747475 C9.43838384,35.410101 9.37373737,35.3454545 9.43838384,35.2808081 L10.0848485,34.1818182 C10.1494949,34.1171717 10.2141414,34.0525253 10.2787879,34.1171717 C10.3434343,34.1818182 10.4080808,34.2464646 10.3434343,34.3111111 L9.6969697,35.410101 Z" id="Path" fill="#FFE0A1"></path>
                                                    <path d="M36.0080808,14.5939394 C35.9434343,14.5939394 35.8141414,14.5939394 35.8141414,14.4646465 C35.8141414,14.4 35.8141414,14.2707071 35.9434343,14.2707071 L37.1717172,13.9474747 C37.2363636,13.9474747 37.3656566,13.9474747 37.3656566,14.0767677 C37.3656566,14.1414141 37.3656566,14.2707071 37.2363636,14.2707071 L36.0080808,14.5939394 Z" id="Path" fill="#FFE0A1"></path>
                                                    <path d="M0.84040404,24.0323232 C0.775757576,24.0323232 0.646464646,24.0323232 0.646464646,23.9030303 C0.646464646,23.8383838 0.646464646,23.7090909 0.775757576,23.7090909 L2.0040404,23.3858586 C2.06868687,23.3858586 2.1979798,23.3858586 2.1979798,23.5151515 C2.1979798,23.579798 2.1979798,23.7090909 2.06868687,23.7090909 L0.84040404,24.0323232 Z" id="Path" fill="#FFE0A1"></path>
                                                    <path d="M20.5575758,11.3616162 L18.8121212,11.3616162 C18.6181818,11.3616162 18.4242424,11.4262626 18.230303,11.4909091 L14.8686869,13.3010101 C14.3515152,13.559596 14.0929293,14.1414141 14.2222222,14.7232323 L14.610101,16.3393939 C14.6747475,16.7272727 14.9333333,17.0505051 15.3212121,17.179798 C15.6444444,17.3090909 16.0969697,17.3090909 16.420202,17.1151515 L17.3252525,16.6626263 L17.3252525,28.040404 C17.3252525,28.7515152 17.9070707,29.2686869 18.5535354,29.2686869 L20.5575758,29.2686869 C21.2686869,29.2686869 21.7858586,28.6868687 21.7858586,28.040404 L21.7858586,12.589899 C21.7858586,11.9434343 21.2040404,11.3616162 20.5575758,11.3616162 Z" id="Path" fill="#FFE0A1"></path>
                                                </g>
                                                <path d="M17.6646465,21.1393939 L17.6646465,28.379798 C17.6646465,29.0909091 18.2464646,29.6080808 18.8929293,29.6080808 L20.8969697,29.6080808 C21.6080808,29.6080808 22.1252525,29.0262626 22.1252525,28.379798 L22.1252525,16.6141414 L17.6646465,21.1393939 Z" id="Path" fill="#F7D27F" fill-rule="evenodd"></path>
                                            </g>
                                        </g>
                                        <g id="shape" mask="url(#mask-2)">
                                            <g transform="translate(7.000000, -11.000000)">
                                                <path d="M9.12675,18.231478 L15.16175,18.231478 L24.5055,2.31408794 C22.9755,1.48276879 21.34675,0.812470922 19.64675,0.311931915 L9.12675,18.231478 Z" id="Fill-1" fill="#3C69BE"></path>
                                                <path d="M4.774875,0.538609929 C3.097375,1.08782979 1.499875,1.81055319 -0.000125,2.68431206 L9.126125,18.2309787 L15.162375,18.2309787 L4.774875,0.538609929 Z" id="Fill-3" fill="#6496E1"></path>
                                                <path d="M16.8855,22.5356142 C16.40925,22.5356142 16.02425,22.1499121 16.02425,21.6743376 L16.02425,18.2317277 C16.02425,17.7561532 15.63675,17.3704511 15.16175,17.3704511 L9.98925,17.3704511 C9.51425,17.3704511 9.12675,17.7561532 9.12675,18.2317277 L9.12675,21.6743376 C9.12675,22.1499121 8.7405,22.5356142 8.2655,22.5356142 C7.78925,22.5356142 7.403,22.1499121 7.403,21.6743376 L7.403,18.2317277 C7.403,16.8075007 8.563,15.6491461 9.988,15.6491461 L15.1605,15.6491461 C16.588,15.6491461 17.74675,16.8075007 17.74675,18.2317277 L17.74675,21.6743376 C17.74675,22.1499121 17.36175,22.5356142 16.8855,22.5356142" id="Fill-6" fill="#9B9BA0"></path>
                                                <path d="M3.296,8.29858723 L9.12725,18.2319773 L15.16225,18.2319773 L5.03725,0.985225532 C4.31475,2.44440284 3.626,4.73240284 3.296,8.29858723" id="Fill-8" fill="#4678D2"></path>
                                                <path d="M19.64675,0.311931915 L18.4155,2.41020142 C18.77675,4.58835745 19.363,6.97371915 20.28425,9.5051234 L24.50675,2.31408794 C22.9755,1.48276879 21.348,0.812470922 19.64675,0.311931915" id="Fill-10" fill="#6496E1"></path>
                                                <path d="M12.57525,19.0920057 C19.24025,19.0920057 24.644,24.4880908 24.644,31.1436369 C24.644,37.799183 19.24025,43.1965163 12.57525,43.1965163 C5.909,43.1965163 0.5065,37.799183 0.5065,31.1436369 C0.5065,24.4880908 5.909,19.0920057 12.57525,19.0920057" id="Fill-12" fill="#DC8750"></path>
                                                <path d="M12.57525,39.7524085 C9.759,39.7524085 7.25275,38.3955858 5.679,36.3023092 C5.6815,34.1553589 7.20775,33.375217 9.53525,32.4303092 C10.61525,31.9934298 11.634,31.5790184 12.32275,30.8912454 C13.29025,29.926366 13.81525,29.1025362 14.27775,28.3748199 C15.12525,27.0442099 15.6915,26.159217 18.73025,25.1256851 C20.254,26.6784794 21.19525,28.8042099 21.19525,31.1446355 C21.19525,35.8903943 17.329,39.7524085 12.57525,39.7524085 M16.1715,24.3130894 C14.2015,25.2916993 13.55025,26.3115007 12.824,27.4511319 C12.38775,28.1339121 11.9365,28.842905 11.104,29.6742241 C10.6615,30.1148482 9.799,30.4656 8.8865,30.8350752 C8.0715,31.1658553 7.139,31.5453163 6.3065,32.0907915 C7.7615,27.8343376 11.589,24.7562099 16.1715,24.3130894 M12.57525,22.5356142 C13.299,22.5356142 14.00275,22.6267348 14.67525,22.7952454 C9.43275,23.8362667 5.27275,27.9229617 4.21525,33.2416567 C4.04525,32.5701106 3.95525,31.8673589 3.95525,31.1446355 C3.95525,26.3976284 7.8215,22.5356142 12.57525,22.5356142 M12.57525,20.8143092 C6.8715,20.8143092 2.23025,25.4477277 2.23025,31.1446355 C2.23025,36.840295 6.8715,41.4749617 12.57525,41.4749617 C18.279,41.4749617 22.919,36.840295 22.919,31.1446355 C22.919,25.4477277 18.279,20.8143092 12.57525,20.8143092" id="Fill-15" fill="#CC6447"></path>
                                            </g>
                                        </g>
                                        <text id="3" mask="url(#mask-2)" font-family="NotoSansCJKkr-Bold, Noto Sans CJK KR" font-size="16" font-weight="bold" fill="#1B1B1B">
                                            <tspan x="15" y="26">3</tspan>
                                        </text>
                                    </g>
                                </g>
                            </g>
                        </g>
                    </g>
                </g>
            </g>
        </g>
    </g>
</svg>