<?xml version="1.0" encoding="UTF-8"?>
<svg width="24px" height="24px" viewBox="0 0 24 24" version="1.1" xmlns="http://www.w3.org/2000/svg" xmlns:xlink="http://www.w3.org/1999/xlink">
    <!-- Generator: sketchtool 52.6 (67491) - http://www.bohemiancoding.com/sketch -->
    <title>F3A7A0CE-5FC8-4851-B52A-256354A5A690</title>
    <desc>Created with sketchtool.</desc>
    <g id="Mobile-Page" stroke="none" stroke-width="1" fill="none" fill-rule="evenodd">
        <g id="M_SUB_Option_Alarm01_1" transform="translate(-14.000000, -433.000000)">
            <g id="body" transform="translate(0.000000, 80.000000)">
                <g id="guide" transform="translate(0.000000, 336.000000)">
                    <g id="contents/ic_talk_24px" transform="translate(14.000000, 17.000000)">
                        <g>
                            <rect id="bounds" fill-opacity="0.01" fill="#FFFFFF" opacity="0.5" x="0" y="0" width="24" height="24"></rect>
                            <path d="M12,3.144 C6.696,3.144 2.4,6.528 2.4,10.716 C2.54694267,13.5382474 4.29520477,16.0277726 6.9,17.124 C6.756,17.628 5.952,20.388 5.928,20.604 C5.928,20.604 5.928,20.772 6.012,20.832 C6.0847641,20.8633642 6.1672359,20.8633642 6.24,20.832 C6.54,20.832 9.744,18.54 10.296,18.156 C10.8608133,18.2327492 11.4300048,18.2728331 12,18.276 C17.304,18.276 21.6,14.88 21.6,10.704 C21.6,6.528 17.304,3.144 12,3.144 Z" id="Path" fill="#5F6368" fill-rule="nonzero"></path>
                        </g>
                    </g>
                </g>
            </g>
        </g>
    </g>
</svg>