<?xml version="1.0" encoding="UTF-8"?>
<svg width="60px" height="60px" viewBox="0 0 60 60" version="1.1" xmlns="http://www.w3.org/2000/svg" xmlns:xlink="http://www.w3.org/1999/xlink">
    <!-- Generator: sketchtool 52.6 (67491) - http://www.bohemiancoding.com/sketch -->
    <title>95C06A80-AA14-4A34-A429-C2F30CEC4F55</title>
    <desc>Created with sketchtool.</desc>
    <g id="Mobile-Page" stroke="none" stroke-width="1" fill="none" fill-rule="evenodd">
        <g id="M_LOG_IDPW_Fail" transform="translate(-150.000000, -185.000000)">
            <g id="body" transform="translate(0.000000, 81.000000)">
                <g id="cell" transform="translate(0.000000, 78.000000)">
                    <g id="contents/ic_warning_60px" transform="translate(150.000000, 26.000000)">
                        <g>
                            <rect id="path" fill-opacity="0.01" fill="#FFFFFF" opacity="0.5" x="0" y="0" width="60" height="60"></rect>
                            <path d="M30.9088637,8.55475882 C30.8181406,8.40228434 30.6898968,8.27511936 30.5361287,8.18515942 C30.0340412,7.89141984 29.3868758,8.05689513 29.0906442,8.55475882 L4.20320576,50.382004 C4.10733559,50.5431289 4.05676901,50.7267882 4.05676901,50.9138666 C4.05676901,51.4919247 4.52935328,51.9605334 5.11231553,51.9605334 L54.8871924,51.9605334 C55.0758579,51.9605334 55.2610753,51.9103922 55.4235671,51.8153285 C55.9256546,51.521589 56.0925337,50.8798677 55.7963021,50.382004 L30.9088637,8.55475882 Z M32.6802956,7.5184062 L57.567734,49.3456514 C58.4411832,50.8136198 57.9491343,52.7057571 56.468712,53.5718584 C55.9895992,53.8521569 55.4434792,54 54.8871924,54 L5.11231553,54 C3.39343113,54 2,52.618291 2,50.9138666 C2,50.3622595 2.14909732,49.8207337 2.43177384,49.3456514 L27.3192123,7.5184062 C28.1926614,6.05043784 30.1008512,5.56252822 31.5812735,6.42862954 C32.034664,6.69387956 32.4127953,7.06882989 32.6802956,7.5184062 Z M30,23 C30.6903559,23 31.25,23.5596441 31.25,24.25 L31.25,39.75 C31.25,40.4403559 30.6903559,41 30,41 C29.3096441,41 28.75,40.4403559 28.75,39.75 L28.75,24.25 C28.75,23.5596441 29.3096441,23 30,23 Z M30,46 C29.3096441,46 28.75,45.4403559 28.75,44.75 C28.75,44.0596441 29.3096441,43.5 30,43.5 C30.6903559,43.5 31.25,44.0596441 31.25,44.75 C31.25,45.4403559 30.6903559,46 30,46 Z" id="Combined-Shape" fill="#D2D2D2" fill-rule="nonzero"></path>
                        </g>
                    </g>
                </g>
            </g>
        </g>
    </g>
</svg>