<svg xmlns="http://www.w3.org/2000/svg" width="24" height="24" viewBox="0 0 24 24">
    <g fill="none" fill-rule="evenodd">
        <path fill="#FFF" fill-opacity=".01" d="M0 0h24v24H0z"/>
        <path fill="#1B1B1B" fill-rule="nonzero" d="M3 17.46v3.04c0 .28.22.5.5.5h3.04c.13 0 .26-.05.35-.15L17.81 9.94l-3.75-3.75L3.15 17.1c-.1.1-.15.22-.15.36zM20.71 7.04l-1.83 1.83-3.75-3.75 1.83-1.83a.996.996 0 0 1 1.41 0l2.34 2.34c.39.39.39 1.02 0 1.41zM5.92 19H5v-.92l9.06-9.06.92.92L5.92 19z"/>
    </g>
</svg>
