<?xml version="1.0" encoding="utf-8"?>
<!-- Generator: Adobe Illustrator 23.0.1, SVG Export Plug-In . SVG Version: 6.00 Build 0)  -->
<svg version="1.1" id="레이어_1" xmlns="http://www.w3.org/2000/svg" xmlns:xlink="http://www.w3.org/1999/xlink" x="0px"
	 y="0px" viewBox="0 0 120 120" style="enable-background:new 0 0 120 120;" xml:space="preserve">
<style type="text/css">
	.st0{fill-rule:evenodd;clip-rule:evenodd;fill:#FFFFFF;fill-opacity:1.000000e-02;}
	.st1{fill:#FBFBFB;}
</style>
<g>
	<path class="st0" d="M36,36h48v48H36V36z"/>
	<path class="st1" d="M56,68h8c1.1,0,2-0.9,2-2v-6c0-1.1-0.9-2-2-2v-2c0-2.2-1.8-4-4-4c-2.2,0-4,1.8-4,4v2c-1.1,0-2,0.9-2,2v6
		C54,67.1,54.9,68,56,68z M57.6,56c0-1.3,1.1-2.4,2.4-2.4s2.4,1.1,2.4,2.4v2h-4.8C57.6,58,57.6,56,57.6,56z M70,38H50
		c-2.2,0-4,1.8-4,4v36c0,2.2,1.8,4,4,4h20c2.2,0,4-1.8,4-4V42C74,39.8,72.2,38,70,38z M70,74H50V46h20V74z"/>
</g>
</svg>
